<svg width="62" height="14" viewBox="0 0 62 14" fill="none" xmlns="http://www.w3.org/2000/svg">
<path d="M1.5293 0.175781V12.208H7.66406V13.5H0V0.175781H1.5293ZM11.2676 13.5H9.73828V0.175781H11.2676V13.5ZM18.9844 0.175781H23.5547C24.9551 0.175781 26.0479 0.530273 26.833 1.23926C27.624 1.94824 28.0195 2.93262 28.0195 4.19238C28.0195 5.45801 27.624 6.44824 26.833 7.16309C26.0479 7.87207 24.9492 8.22656 23.5371 8.22656H20.5137V13.5H18.9844V0.175781ZM20.5137 6.96973H23.625C24.5039 6.96973 25.1895 6.72363 25.6816 6.23145C26.1797 5.73926 26.4287 5.05957 26.4287 4.19238C26.4287 3.3252 26.1826 2.65137 25.6904 2.1709C25.2041 1.68457 24.5215 1.44141 23.6426 1.44141H20.5137V6.96973ZM31.8691 0.175781V12.208H38.0039V13.5H30.3398V0.175781H31.8691ZM44.2793 13.6758C42.7559 13.6758 41.5635 13.2568 40.7021 12.4189C39.8467 11.5752 39.4189 10.4062 39.4189 8.91211V0.175781H40.9658V9.01758C40.9658 10.0723 41.2588 10.8955 41.8447 11.4873C42.4365 12.0732 43.2598 12.3662 44.3145 12.3662C45.3809 12.3662 46.21 12.0732 46.8018 11.4873C47.3994 10.8955 47.6982 10.0723 47.6982 9.01758V0.175781H49.1572V8.91211C49.1572 10.4062 48.7266 11.5752 47.8652 12.4189C47.0039 13.2568 45.8086 13.6758 44.2793 13.6758ZM56.6455 13.6758C55.1221 13.6758 53.9062 13.2598 52.998 12.4277C52.0957 11.5957 51.6006 10.4355 51.5127 8.94727H53.042C53.1123 10.0254 53.4639 10.8662 54.0967 11.4697C54.7354 12.0674 55.5908 12.3662 56.6631 12.3662C57.7881 12.3662 58.6611 12.1436 59.2822 11.6982C59.9092 11.2471 60.2227 10.6172 60.2227 9.80859C60.2227 9.5332 60.1846 9.28711 60.1084 9.07031C60.0381 8.84766 59.9414 8.65723 59.8184 8.49902C59.7012 8.34082 59.543 8.2002 59.3438 8.07715C59.1504 7.94824 58.957 7.84277 58.7637 7.76074C58.5762 7.67871 58.3418 7.60254 58.0605 7.53223C57.7793 7.46191 57.5244 7.40625 57.2959 7.36523C57.0732 7.32422 56.8037 7.27734 56.4873 7.22461C56.458 7.21875 56.4375 7.21582 56.4258 7.21582C56.1035 7.16309 55.8545 7.12207 55.6787 7.09277C55.5088 7.06348 55.2715 7.01953 54.9668 6.96094C54.668 6.89648 54.4307 6.83496 54.2549 6.77637C54.085 6.71777 53.874 6.63867 53.6221 6.53906C53.376 6.43359 53.1797 6.3252 53.0332 6.21387C52.8926 6.10254 52.7373 5.96484 52.5674 5.80078C52.4033 5.63086 52.2773 5.45215 52.1895 5.26465C52.1016 5.07129 52.0254 4.84863 51.9609 4.59668C51.9023 4.33887 51.873 4.06055 51.873 3.76172C51.873 2.56641 52.292 1.64063 53.1299 0.984375C53.9736 0.328125 55.1455 0 56.6455 0C58.0693 0 59.2031 0.401367 60.0469 1.2041C60.8965 2.00098 61.3594 3.11133 61.4355 4.53516H59.8975C59.8447 3.52148 59.5283 2.7334 58.9482 2.1709C58.3682 1.60254 57.583 1.31836 56.5928 1.31836C55.6025 1.31836 54.8291 1.52637 54.2725 1.94238C53.7158 2.35254 53.4375 2.92969 53.4375 3.67383C53.4375 4.46484 53.8242 5.0332 54.5977 5.37891C55.0312 5.57227 55.7842 5.75391 56.8564 5.92383H56.8652H56.874H56.8828H56.8916H56.9004L56.9092 5.93262H56.918H56.9268H56.9355H56.9443H56.9531L56.9619 5.94141H56.9707H56.9795H56.9883C58.1719 6.12891 59.0244 6.31934 59.5459 6.5127C60.6709 6.92285 61.374 7.59961 61.6553 8.54297C61.7607 8.88867 61.8135 9.27539 61.8135 9.70312C61.8135 10.957 61.3564 11.9326 60.4424 12.6299C59.5342 13.3271 58.2686 13.6758 56.6455 13.6758Z" fill="white"/>
</svg>
