<svg width="1421" height="244" viewBox="0 0 1421 244" fill="none" xmlns="http://www.w3.org/2000/svg">
<path d="M27.1875 3.125V217.031H136.25V240H0V3.125H27.1875ZM200.312 240H173.125V3.125H200.312V240ZM337.5 3.125H418.75C443.646 3.125 463.073 9.42708 477.031 22.0312C491.094 34.6354 498.125 52.1354 498.125 74.5312C498.125 97.0312 491.094 114.635 477.031 127.344C463.073 139.948 443.542 146.25 418.438 146.25H364.688V240H337.5V3.125ZM364.688 123.906H420C435.625 123.906 447.812 119.531 456.562 110.781C465.417 102.031 469.844 89.9479 469.844 74.5312C469.844 59.1146 465.469 47.1354 456.719 38.5938C448.073 29.9479 435.938 25.625 420.312 25.625H364.688V123.906ZM566.562 3.125V217.031H675.625V240H539.375V3.125H566.562ZM787.188 243.125C760.104 243.125 738.906 235.677 723.594 220.781C708.385 205.781 700.781 185 700.781 158.438V3.125H728.281V160.312C728.281 179.062 733.49 193.698 743.906 204.219C754.427 214.635 769.062 219.844 787.812 219.844C806.771 219.844 821.51 214.635 832.031 204.219C842.656 193.698 847.969 179.062 847.969 160.312V3.125H873.906V158.438C873.906 185 866.25 205.781 850.938 220.781C835.625 235.677 814.375 243.125 787.188 243.125ZM1007.03 243.125C979.948 243.125 958.333 235.729 942.188 220.938C926.146 206.146 917.344 185.521 915.781 159.062H942.969C944.219 178.229 950.469 193.177 961.719 203.906C973.073 214.531 988.281 219.844 1007.34 219.844C1027.34 219.844 1042.86 215.885 1053.91 207.969C1065.05 199.948 1070.62 188.75 1070.62 174.375C1070.62 169.479 1069.95 165.104 1068.59 161.25C1067.34 157.292 1065.62 153.906 1063.44 151.094C1061.35 148.281 1058.54 145.781 1055 143.594C1051.56 141.302 1048.12 139.427 1044.69 137.969C1041.35 136.51 1037.19 135.156 1032.19 133.906C1027.19 132.656 1022.66 131.667 1018.59 130.938C1014.64 130.208 1009.84 129.375 1004.22 128.438C1003.7 128.333 1003.33 128.281 1003.12 128.281C997.396 127.344 992.969 126.615 989.844 126.094C986.823 125.573 982.604 124.792 977.188 123.75C971.875 122.604 967.656 121.51 964.531 120.469C961.51 119.427 957.76 118.021 953.281 116.25C948.906 114.375 945.417 112.448 942.812 110.469C940.312 108.49 937.552 106.042 934.531 103.125C931.615 100.104 929.375 96.9271 927.812 93.5938C926.25 90.1562 924.896 86.1979 923.75 81.7188C922.708 77.1354 922.188 72.1875 922.188 66.875C922.188 45.625 929.635 29.1667 944.531 17.5C959.531 5.83333 980.365 0 1007.03 0C1032.34 0 1052.5 7.13542 1067.5 21.4062C1082.6 35.5729 1090.83 55.3125 1092.19 80.625H1064.84C1063.91 62.6042 1058.28 48.5938 1047.97 38.5938C1037.66 28.4896 1023.7 23.4375 1006.09 23.4375C988.49 23.4375 974.74 27.1354 964.844 34.5312C954.948 41.8229 950 52.0833 950 65.3125C950 79.375 956.875 89.4792 970.625 95.625C978.333 99.0625 991.719 102.292 1010.78 105.312H1010.94H1011.09H1011.25H1011.41H1011.56L1011.72 105.469H1011.88H1012.03H1012.19H1012.34H1012.5L1012.66 105.625H1012.81H1012.97H1013.12C1034.17 108.958 1049.32 112.344 1058.59 115.781C1078.59 123.073 1091.09 135.104 1096.09 151.875C1097.97 158.021 1098.91 164.896 1098.91 172.5C1098.91 194.792 1090.78 212.135 1074.53 224.531C1058.39 236.927 1035.89 243.125 1007.03 243.125ZM1247.5 3.125V217.031H1356.56V240H1220.31V3.125H1247.5ZM1420.62 240H1393.44V3.125H1420.62V240Z" fill="white"/>
</svg>
