<svg width="104" height="23" viewBox="0 0 104 23" fill="none" xmlns="http://www.w3.org/2000/svg">
<path d="M2.54883 0.292969V20.3467H12.7734V22.5H0V0.292969H2.54883ZM18.7793 22.5H16.2305V0.292969H18.7793V22.5ZM31.6406 0.292969H39.2578C41.5918 0.292969 43.4131 0.883789 44.7217 2.06543C46.04 3.24707 46.6992 4.8877 46.6992 6.9873C46.6992 9.09668 46.04 10.7471 44.7217 11.9385C43.4131 13.1201 41.582 13.7109 39.2285 13.7109H34.1895V22.5H31.6406V0.292969ZM34.1895 11.6162H39.375C40.8398 11.6162 41.9824 11.2061 42.8027 10.3857C43.6328 9.56543 44.0479 8.43262 44.0479 6.9873C44.0479 5.54199 43.6377 4.41895 42.8174 3.61816C42.0068 2.80762 40.8691 2.40234 39.4043 2.40234H34.1895V11.6162ZM53.1152 0.292969V20.3467H63.3398V22.5H50.5664V0.292969H53.1152ZM73.7988 22.793C71.2598 22.793 69.2725 22.0947 67.8369 20.6982C66.4111 19.292 65.6982 17.3438 65.6982 14.8535V0.292969H68.2764V15.0293C68.2764 16.7871 68.7646 18.1592 69.7412 19.1455C70.7275 20.1221 72.0996 20.6104 73.8574 20.6104C75.6348 20.6104 77.0166 20.1221 78.0029 19.1455C78.999 18.1592 79.4971 16.7871 79.4971 15.0293V0.292969H81.9287V14.8535C81.9287 17.3438 81.2109 19.292 79.7754 20.6982C78.3398 22.0947 76.3477 22.793 73.7988 22.793ZM94.4092 22.793C91.8701 22.793 89.8438 22.0996 88.3301 20.7129C86.8262 19.3262 86.001 17.3926 85.8545 14.9121H88.4033C88.5205 16.709 89.1064 18.1104 90.1611 19.1162C91.2256 20.1123 92.6514 20.6104 94.4385 20.6104C96.3135 20.6104 97.7686 20.2393 98.8037 19.4971C99.8486 18.7451 100.371 17.6953 100.371 16.3477C100.371 15.8887 100.308 15.4785 100.181 15.1172C100.063 14.7461 99.9023 14.4287 99.6973 14.165C99.502 13.9014 99.2383 13.667 98.9062 13.4619C98.584 13.2471 98.2617 13.0713 97.9395 12.9346C97.627 12.7979 97.2363 12.6709 96.7676 12.5537C96.2988 12.4365 95.874 12.3438 95.4932 12.2754C95.1221 12.207 94.6729 12.1289 94.1455 12.041C94.0967 12.0312 94.0625 12.0264 94.043 12.0264C93.5059 11.9385 93.0908 11.8701 92.7979 11.8213C92.5146 11.7725 92.1191 11.6992 91.6113 11.6016C91.1133 11.4941 90.7178 11.3916 90.4248 11.2939C90.1416 11.1963 89.79 11.0645 89.3701 10.8984C88.96 10.7227 88.6328 10.542 88.3887 10.3564C88.1543 10.1709 87.8955 9.94141 87.6123 9.66797C87.3389 9.38477 87.1289 9.08691 86.9824 8.77441C86.8359 8.45215 86.709 8.08105 86.6016 7.66113C86.5039 7.23145 86.4551 6.76758 86.4551 6.26953C86.4551 4.27734 87.1533 2.73438 88.5498 1.64062C89.9561 0.546875 91.9092 0 94.4092 0C96.7822 0 98.6719 0.668945 100.078 2.00684C101.494 3.33496 102.266 5.18555 102.393 7.55859H99.8291C99.7412 5.86914 99.2139 4.55566 98.2471 3.61816C97.2803 2.6709 95.9717 2.19727 94.3213 2.19727C92.6709 2.19727 91.3818 2.54395 90.4541 3.2373C89.5264 3.9209 89.0625 4.88281 89.0625 6.12305C89.0625 7.44141 89.707 8.38867 90.9961 8.96484C91.7188 9.28711 92.9736 9.58984 94.7607 9.87305H94.7754H94.79H94.8047H94.8193H94.834L94.8486 9.8877H94.8633H94.8779H94.8926H94.9072H94.9219L94.9365 9.90234H94.9512H94.9658H94.9805C96.9531 10.2148 98.374 10.5322 99.2432 10.8545C101.118 11.5381 102.29 12.666 102.759 14.2383C102.935 14.8145 103.022 15.459 103.022 16.1719C103.022 18.2617 102.261 19.8877 100.737 21.0498C99.2236 22.2119 97.1143 22.793 94.4092 22.793Z" fill="white"/>
</svg>
